<svg xmlns="http://www.w3.org/2000/svg" width="50.229" height="50.229" viewBox="0 0 50.229 50.229"><defs><style>.a{fill:none;}.b{fill:#607d8b;}</style></defs><path class="a" d="M0,0H50.229V50.229H0Z"/><path class="b" d="M13.627,9.978,9.681,6.044,6.59,9.143l3.924,3.934ZM7.577,22.417H1v4.4H7.577ZM27.307.55H22.922V7.033h4.384V.55ZM43.639,9.143l-3.091-3.1L36.624,9.978l3.091,3.1ZM36.6,39.251l3.924,3.956,3.091-3.1-3.946-3.934L36.6,39.251Zm6.051-16.834v4.4h6.577v-4.4ZM25.115,11.429A13.186,13.186,0,1,0,38.268,24.615,13.18,13.18,0,0,0,25.115,11.429ZM22.922,48.679h4.384V42.2H22.922ZM6.59,40.086l3.091,3.1,3.924-3.956-3.091-3.1Z"/></svg>